<?xml version="1.0" encoding="UTF-8"?>
<svg version="1.1" xmlns="http://www.w3.org/2000/svg" width="2133" height="2133">
<path d="M0 0 C703.23 0 1406.46 0 2131 0 C2131 703.23 2131 1406.46 2131 2131 C1427.77 2131 724.54 2131 0 2131 C0 1427.77 0 724.54 0 0 Z " fill="#3664DA" transform="translate(2,2)"/>
<path d="M0 0 C703.23 0 1406.46 0 2131 0 C2131 703.23 2131 1406.46 2131 2131 C1427.77 2131 724.54 2131 0 2131 C0 1427.77 0 724.54 0 0 Z M1009 139 C1007.09554507 139.16539369 1005.18905313 139.30889489 1003.28125 139.4296875 C1002.19900146 139.50123047 1001.11675293 139.57277344 1000.00170898 139.64648438 C998.84614502 139.72189453 997.69058105 139.79730469 996.5 139.875 C986.4699637 140.56327698 976.45686824 141.35599607 966.44873047 142.30865479 C964.48953938 142.49504906 962.52992983 142.67702829 960.5703125 142.85888672 C954.11674783 143.48669521 947.79501352 144.32733913 941.42944336 145.55810547 C937.97982915 146.18556017 934.55522638 146.49497942 931.0625 146.8125 C896.18481725 150.44559195 860.80790126 158.85747204 827 168 C826.15985352 168.22719727 825.31970703 168.45439453 824.45410156 168.68847656 C808.51517178 173.04548505 792.75051151 178.01233802 777 183 C775.48696289 183.47493896 775.48696289 183.47493896 773.94335938 183.95947266 C689.82970671 210.49225573 610.6717493 252.51948518 505 326 C504.43861328 326.42490723 503.87722656 326.84981445 503.29882812 327.28759766 C490.06335407 337.30953674 477.23294332 347.83669052 464.61523438 358.62304688 C462.95165457 360.04121346 461.28104124 361.45075317 459.609375 362.859375 C452.73271797 368.67540494 446.04632887 374.65421289 439.50048828 380.84106445 C436.27685288 383.88732278 433.01406855 386.86758482 429.68359375 389.796875 C422.26533221 396.45304422 415.28548938 403.5656587 408.24926758 410.62036133 C405.81118368 413.06381922 403.36778211 415.50186807 400.92382812 417.93945312 C399.35124167 419.51270021 397.77896536 421.08625737 396.20703125 422.66015625 C395.12709648 423.73705467 395.12709648 423.73705467 394.02534485 424.83570862 C390.04491423 428.83437765 386.23169677 432.92425074 382.55628967 437.20559692 C379.99850381 440.1547258 377.30323683 442.97322475 374.625 445.8125 C369.99727689 450.75748862 365.60172182 455.81227238 361.3671875 461.1015625 C358.53012815 464.57532163 355.58118067 467.94021014 352.625 471.3125 C346.94628874 477.81600593 341.54716394 484.49414828 336.28222656 491.33544922 C335.05595754 492.92735748 333.8211448 494.51267342 332.5859375 496.09765625 C295.729902 543.57831436 263.90522372 594.31559453 236.61230469 647.83837891 C235.58768443 649.84759034 234.56003432 651.85526175 233.52832031 653.86083984 C204.94865394 709.43019115 183.15167461 768.96754087 167.6875 829.45703125 C166.71990151 833.23509298 165.73531856 837.00512547 164.6875 840.76171875 C160.84347179 854.60739666 158.05589022 868.67747372 155.24916077 882.76225281 C154.40684208 886.98859403 153.54100052 891.20887242 152.65234375 895.42578125 C145.49528645 930.01114989 141.95739447 965.34158234 139.20294189 1000.51449585 C139.06084578 1002.25479933 138.90360427 1003.99390196 138.73504639 1005.73184204 C137.79013916 1016.18142283 137.85482345 1026.61157966 137.8671875 1037.09375 C137.86651184 1039.13236503 137.86553963 1041.17097997 137.86428833 1043.20959473 C137.86282103 1047.46916475 137.86493283 1051.72871369 137.86962891 1055.98828125 C137.87529637 1061.38572644 137.87205996 1066.78312156 137.86605644 1072.18056488 C137.86239952 1076.38993693 137.86361314 1080.59929761 137.86618423 1084.80867004 C137.86684093 1086.79531358 137.86607031 1088.78195823 137.86370468 1090.76860046 C137.84696629 1108.78624003 138.41894123 1126.72323766 140.1640625 1144.6640625 C140.27672958 1145.85008057 140.38939667 1147.03609863 140.50547791 1148.25805664 C140.8702315 1152.04791957 141.24577188 1155.83655939 141.625 1159.625 C141.75494354 1160.93249207 141.88488708 1162.23998413 142.01876831 1163.58709717 C144.31126031 1186.50743276 147.45548387 1209.20381761 151.609375 1231.86230469 C151.97828082 1233.88114176 152.33900685 1235.9014686 152.69921875 1237.921875 C155.33973465 1252.70876403 158.62164638 1267.29174405 162.23388672 1281.86914062 C163.01191851 1285.04870713 163.76196568 1288.23370563 164.50390625 1291.421875 C167.32464833 1303.50708961 170.4218942 1315.43447536 174.14355469 1327.2746582 C174.79979468 1329.36291563 175.45044358 1331.4529308 176.09863281 1333.54370117 C196.58523526 1399.59412764 222.43569637 1464.41877855 257.39648438 1524.25048828 C259.08587497 1527.14724785 260.75489067 1530.05513858 262.421875 1532.96484375 C270.2391215 1546.55707156 278.44040925 1559.86333147 287 1573 C287.44794922 1573.68852051 287.89589844 1574.37704102 288.35742188 1575.08642578 C313.34857695 1613.36266056 341.27466578 1649.9427591 372.0078125 1683.79296875 C373.76193381 1685.73626001 375.47972694 1687.70359448 377.1875 1689.6875 C388.20979854 1702.28866386 400.00411774 1714.16451869 411.85205078 1725.98242188 C414.39603328 1728.5209885 416.93455128 1731.0649333 419.47265625 1733.609375 C421.1142624 1735.25032112 422.75617831 1736.89095744 424.3984375 1738.53125 C425.14443207 1739.2792688 425.89042664 1740.0272876 426.6590271 1740.79797363 C430.7267536 1744.847767 434.88058775 1748.73497231 439.23616028 1752.47427368 C441.99970587 1754.86474839 444.64786884 1757.37562055 447.3125 1759.875 C452.1064914 1764.33504356 457.02510996 1768.56309553 462.1328125 1772.6640625 C465.41579033 1775.33875016 468.61253139 1778.10219348 471.8125 1780.875 C478.0852887 1786.28631548 484.5262612 1791.43991785 491.078125 1796.5078125 C493.14263859 1798.11074785 495.19682476 1799.72632058 497.25 1801.34375 C512.73436391 1813.51439895 528.69298937 1824.96050273 545 1836 C545.59280762 1836.40250977 546.18561523 1836.80501953 546.79638672 1837.21972656 C571.04625637 1853.6550774 596.09190334 1868.68872403 621.77392578 1882.77148438 C624.10565422 1884.05830797 626.42637697 1885.36353403 628.74609375 1886.671875 C640.23993825 1893.1254236 651.94352954 1898.97210575 663.88818359 1904.54345703 C667.09519926 1906.04455977 670.29200527 1907.5660212 673.48828125 1909.08984375 C718.70194822 1930.52027763 765.9561702 1948.32272375 814.30322266 1961.26171875 C816.82253206 1961.95141562 819.32396188 1962.68200443 821.82421875 1963.4375 C865.77913073 1976.66673567 911.63760997 1984.85106291 957.234375 1989.70019531 C959.70045794 1989.96752846 962.16274042 1990.25449124 964.625 1990.5546875 C975.17482339 1991.82598132 985.74236226 1992.60588802 996.34521484 1993.30297852 C1005.32014576 1993.90193706 1005.32014576 1993.90193706 1009.62890625 1994.5234375 C1061.76664928 2001.89401067 1118.9421171 1996.25278712 1171.02947998 1990.22595215 C1173.75932677 1989.91293084 1176.49108637 1989.61786913 1179.22265625 1989.3203125 C1207.94490761 1986.0703092 1236.82375371 1981.44698044 1265 1975 C1267.0871482 1974.53474612 1269.1743919 1974.06992046 1271.26171875 1973.60546875 C1292.61410663 1968.80841944 1313.86269205 1963.60327152 1334.6574707 1956.75415039 C1337.36768535 1955.88162793 1340.09128223 1955.0591547 1342.81640625 1954.234375 C1408.1460523 1934.19434549 1472.22975375 1906.83225215 1530.95898438 1871.80078125 C1534.03713761 1869.97800843 1537.13288333 1868.18898202 1540.234375 1866.40625 C1553.74197197 1858.59590861 1566.83765484 1850.28971511 1579.8125 1841.625 C1580.94588806 1840.86863251 1580.94588806 1840.86863251 1582.10217285 1840.09698486 C1591.8619265 1833.57105766 1601.49284073 1826.88848789 1611 1820 C1611.87245361 1819.36803711 1612.74490723 1818.73607422 1613.64379883 1818.08496094 C1637.65317376 1800.61377656 1660.78770888 1781.96233074 1682.78125 1762.00390625 C1684.79308393 1760.18688018 1686.82660434 1758.40055608 1688.875 1756.625 C1697.29236843 1749.27462194 1705.4318018 1741.70198935 1713.234375 1733.703125 C1715.38475164 1731.60134445 1717.55120946 1729.64680886 1719.83203125 1727.6953125 C1724.16890916 1723.93688902 1728.0512542 1719.84114299 1731.9375 1715.625 C1736.24734573 1710.99247605 1740.55267588 1706.37758457 1745.0625 1701.9375 C1748.22319692 1698.81846952 1751.17336574 1695.58940663 1754.0625 1692.21875 C1755.9857634 1690.0163032 1757.96045744 1687.86742145 1759.94946289 1685.72436523 C1764.70690142 1680.59539186 1769.24042704 1675.3546967 1773.62890625 1669.90234375 C1776.31831577 1666.61036472 1779.09181954 1663.40005506 1781.875 1660.1875 C1787.28142628 1653.92024303 1792.43114274 1647.48540482 1797.49462891 1640.93945312 C1799.1376503 1638.82265748 1800.79268508 1636.71561113 1802.44921875 1634.609375 C1809.01641036 1626.24423623 1815.44804266 1617.82148879 1821.53466797 1609.09863281 C1823.27886804 1606.60060819 1825.03254135 1604.10931512 1826.78515625 1601.6171875 C1834.77164169 1590.23086329 1842.59339877 1578.77223808 1850 1567 C1850.49532227 1566.21512207 1850.99064453 1565.43024414 1851.50097656 1564.62158203 C1864.7822116 1543.52615426 1877.25290442 1521.98513818 1889 1500 C1889.48678223 1499.09491699 1889.97356445 1498.18983398 1890.47509766 1497.25732422 C1898.36563857 1482.55517962 1905.5715606 1467.58516513 1912.46240234 1452.39013672 C1913.43708169 1450.24113745 1914.41605494 1448.09407627 1915.40087891 1445.94970703 C1934.4419342 1404.45424918 1952.18966276 1359.48928092 1962.5625 1314.9375 C1963.86821419 1309.51947003 1965.21697551 1304.13216565 1966.77026367 1298.77954102 C1979.02498032 1256.38524671 1986.05339425 1212.00615175 1990.76361084 1168.18988037 C1990.99080549 1166.08517678 1991.22426712 1163.98126293 1991.45947266 1161.87744141 C1995.12649099 1128.56972042 1996.17998805 1095.17855696 1996.1875 1061.6875 C1996.18899551 1059.92925903 1996.18899551 1059.92925903 1996.19052124 1058.13549805 C1996.18938104 1046.33796799 1996.06761613 1034.55683738 1995.55078125 1022.76953125 C1995.51228561 1021.88150314 1995.47378998 1020.99347504 1995.43412781 1020.07853699 C1995.1997934 1015.32698761 1994.69559546 1010.71005843 1994 1006 C1993.79501337 1003.36993462 1993.61289315 1000.746018 1993.45703125 998.11328125 C1991.86693479 973.34958908 1989.03882544 948.9081503 1985.3548584 924.37133789 C1985.03159229 922.21111518 1984.71422331 920.05014021 1984.39941406 917.88867188 C1979.49424367 884.61045707 1972.05665763 851.38869518 1963 819 C1962.73155273 818.03223633 1962.46310547 817.06447266 1962.18652344 816.06738281 C1947.84208075 764.69068404 1928.76818447 715.20250364 1906 667 C1905.50790039 665.94876953 1905.01580078 664.89753906 1904.50878906 663.81445312 C1897.93203052 649.77091276 1890.95802714 636.03541175 1883.39208984 622.49902344 C1882.09793008 620.17580012 1880.82082785 617.84428269 1879.55078125 615.5078125 C1863.79807434 586.62568003 1846.1546734 558.73836042 1827 532 C1826.4524707 531.23107422 1825.90494141 530.46214844 1825.34082031 529.66992188 C1817.45724961 518.60017215 1809.32855943 507.73834567 1801 497 C1800.51789063 496.37609375 1800.03578125 495.7521875 1799.5390625 495.109375 C1793.74013157 487.61241457 1787.77540279 480.29032334 1781.6171875 473.0859375 C1779.19308244 470.24394435 1776.84268601 467.34709935 1774.5 464.4375 C1770.36958445 459.35960561 1765.99168232 454.55436147 1761.54296875 449.7578125 C1759.55011761 447.59659452 1757.60292215 445.41653031 1755.6875 443.1875 C1744.60344485 430.45362056 1732.66675199 418.50694598 1720.72070312 406.59033203 C1718.1042936 403.97933645 1715.49334454 401.3629644 1712.8828125 398.74609375 C1711.19563343 397.05957472 1709.50814458 395.37336551 1707.8203125 393.6875 C1707.05244415 392.91760742 1706.28457581 392.14771484 1705.49343872 391.35449219 C1701.36524474 387.24400219 1697.15512416 383.2921378 1692.73478699 379.49667358 C1690.15600002 377.27184577 1687.67970044 374.94640628 1685.1875 372.625 C1680.58474162 368.37193784 1675.84253712 364.35766218 1670.95703125 360.4296875 C1668.16995778 358.13964827 1665.45780767 355.78639829 1662.75195312 353.40209961 C1654.84632699 346.44354445 1646.62732415 340.02001365 1638.21777344 333.68554688 C1635.15787139 331.35996742 1632.1354583 328.98789913 1629.11181641 326.61547852 C1621.56834281 320.70036358 1613.95149295 314.94580904 1606.08984375 309.4609375 C1603.61666781 307.73202572 1601.15256594 305.99045443 1598.6875 304.25 C1587.43604922 296.33364817 1576.07318222 288.69001876 1564.36572266 281.46533203 C1561.94774157 279.96763105 1559.54148067 278.45241593 1557.13671875 276.93359375 C1534.5067859 262.69465858 1511.2228134 249.79274382 1487.38232422 237.71679688 C1484.25955653 236.13174545 1481.14635617 234.52947637 1478.03515625 232.921875 C1443.60389567 215.25798204 1407.56084734 201.29245915 1371.20605469 188.16015625 C1368.49094138 187.17765409 1365.77981957 186.18531592 1363.0703125 185.1875 C1352.9732145 181.50164314 1342.71337174 178.52621145 1332.35791016 175.65527344 C1329.23373208 174.78705083 1326.11668517 173.89470677 1323 173 C1321.90171875 172.68804687 1320.8034375 172.37609375 1319.671875 172.0546875 C1316.90698534 171.26051707 1314.14809741 170.45196384 1311.390625 169.6328125 C1257.87851361 153.85333389 1202.09786998 145.40947423 1146.62333679 140.69696045 C1142.87144023 140.37415819 1139.16128247 140.02372028 1135.43432617 139.47558594 C1113.12068331 136.38558976 1089.73942442 137.84503555 1067.26733398 137.86962891 C1061.95065847 137.87538878 1056.63403276 137.87199381 1051.31735897 137.86605644 C1047.18835575 137.86244268 1043.05936437 137.86359209 1038.93036079 137.86618423 C1036.96843014 137.86684798 1035.00649839 137.86604454 1033.04456902 137.86370468 C1030.31606046 137.86115776 1027.58763336 137.86504463 1024.85913086 137.87060547 C1024.06173492 137.86858124 1023.26433899 137.86655701 1022.44277954 137.86447144 C1017.87038095 137.88168459 1013.52622095 138.26513564 1009 139 Z " fill="#FEFEFE" transform="translate(2,2)"/>
<path d="M0 0 C1.10810595 -0.00424107 1.10810595 -0.00424107 2.23859787 -0.00856781 C6.16932257 -0.0234651 10.10001166 -0.03274699 14.03076172 -0.03710938 C17.19494514 -0.04143816 20.35884725 -0.05512238 23.52294922 -0.078125 C54.59249069 -0.29918153 86.22238851 0.78498604 116.7734375 6.953125 C118.55853104 7.30500578 120.34369181 7.65654558 122.12890625 8.0078125 C123.08974121 8.19827148 124.05057617 8.38873047 125.04052734 8.58496094 C128.56886935 9.27291427 132.10216331 9.93067247 135.63671875 10.5859375 C204.87585033 23.47703162 271.356067 50.1862973 331.2109375 87.203125 C332.10329102 87.74807617 332.99564453 88.29302734 333.91503906 88.85449219 C345.76226329 96.08968037 357.06754455 103.92987532 368.2109375 112.203125 C368.8002002 112.63786133 369.38946289 113.07259766 369.99658203 113.52050781 C376.86581621 118.58887228 383.58625764 123.81992058 390.2109375 129.203125 C391.06042969 129.88890625 391.90992188 130.5746875 392.78515625 131.28125 C410.15991251 145.38397187 426.48047686 160.4125255 442.3359375 176.203125 C443.50805786 177.36823608 443.50805786 177.36823608 444.70385742 178.55688477 C448.84990331 182.71455048 452.82958664 186.95814085 456.66064453 191.40771484 C458.74925566 193.82655677 460.91752139 196.16833281 463.0859375 198.515625 C468.0066553 203.91803957 472.63886303 209.50481359 477.2109375 215.203125 C478.12319039 216.32333016 479.03597553 217.44310205 479.94921875 218.5625 C497.80374245 240.5386829 513.82015375 263.82217271 528.2109375 288.203125 C528.91766602 289.40026123 528.91766602 289.40026123 529.63867188 290.62158203 C563.38899239 348.10752515 587.14225366 410.496918 599.5859375 476.015625 C599.83089966 477.30096634 599.83089966 477.30096634 600.08081055 478.61227417 C606.79095896 514.10989833 609.79620339 549.3455331 609.65695953 585.43607712 C609.64829691 587.93111822 609.64526087 590.42611841 609.64324951 592.9211731 C609.61108513 616.87513822 608.9643856 640.49524354 605.2109375 664.203125 C605.03506104 665.36384521 604.85918457 666.52456543 604.67797852 667.72045898 C604.19808765 670.88285154 603.70760351 674.04332937 603.2109375 677.203125 C603.03401367 678.332948 603.03401367 678.332948 602.85351562 679.4855957 C587.25500627 777.99305315 547.19173213 872.0548052 481.2109375 955.203125 C480.47617188 956.1209375 479.74140625 957.03875 478.984375 957.984375 C464.40228453 976.0131414 448.63575127 992.85303396 432.2734375 1009.265625 C431.78288879 1009.75885254 431.29234009 1010.25208008 430.78692627 1010.76025391 C425.10759784 1016.46314604 419.32458841 1021.96628279 413.2109375 1027.203125 C411.6661249 1028.6163605 410.12398425 1030.03252909 408.5859375 1031.453125 C403.54628936 1036.00034951 398.26322886 1040.1683493 392.90234375 1044.32421875 C390.44980441 1046.22699511 388.02184104 1048.15513982 385.61328125 1050.11328125 C359.24435586 1071.55045121 330.47050541 1089.74915905 300.60400391 1105.90820312 C298.96851245 1106.79319055 297.33547644 1107.68272689 295.70458984 1108.57617188 C256.03007891 1130.2451874 212.55783419 1146.86934435 168.67675781 1157.59521484 C165.96173638 1158.26456171 163.25476934 1158.96255843 160.546875 1159.66015625 C144.23404704 1163.79189853 127.83197828 1166.6389975 111.2109375 1169.203125 C109.45656372 1169.47479492 109.45656372 1169.47479492 107.66674805 1169.75195312 C104.51523516 1170.23849303 101.3631849 1170.72137161 98.2109375 1171.203125 C97.01082031 1171.38875 95.81070313 1171.574375 94.57421875 1171.765625 C71.75723711 1175.03771456 48.87804064 1175.55554468 25.87329102 1175.51879883 C22.73577481 1175.51418174 19.59864769 1175.5210589 16.46118164 1175.53930664 C-62.96994772 1175.99624354 -140.96555921 1158.61998043 -213.7890625 1127.203125 C-214.74699707 1126.79175293 -215.70493164 1126.38038086 -216.69189453 1125.95654297 C-228.17544996 1120.99816054 -239.30171579 1115.51094037 -250.296875 1109.55078125 C-252.90262168 1108.14171761 -255.51722805 1106.75008201 -258.1328125 1105.359375 C-281.37515207 1092.92896027 -303.51761416 1078.75336615 -324.7890625 1063.203125 C-325.41393555 1062.74711914 -326.03880859 1062.29111328 -326.68261719 1061.82128906 C-340.20656764 1051.91460439 -353.31433016 1041.46080764 -365.6796875 1030.1328125 C-367.62695752 1028.35142104 -369.60430721 1026.6155273 -371.6015625 1024.890625 C-380.9351742 1016.72371476 -389.88100001 1008.20815915 -398.6640625 999.453125 C-399.46046143 998.66131836 -400.25686035 997.86951172 -401.07739258 997.05371094 C-405.29494809 992.82510197 -409.35200778 988.51676491 -413.24755859 983.98974609 C-415.33255056 981.57321596 -417.49844326 979.23488959 -419.6640625 976.890625 C-424.5847803 971.48821043 -429.21698803 965.90143641 -433.7890625 960.203125 C-434.70131539 959.08291984 -435.61410053 957.96314795 -436.52734375 956.84375 C-448.41477225 942.2099982 -459.57229074 927.04962742 -469.7890625 911.203125 C-470.2339502 910.51911621 -470.67883789 909.83510742 -471.13720703 909.13037109 C-516.32844786 839.51482644 -547.14551032 761.31790984 -559.35180664 679.11425781 C-559.65408715 677.10175487 -559.9664272 675.09074648 -560.28686523 673.08105469 C-561.54217228 665.18305635 -562.51560019 657.28082464 -563.3515625 649.328125 C-563.47724609 648.17699219 -563.60292969 647.02585937 -563.73242188 645.83984375 C-565.18046242 632.23887655 -565.94591396 618.73366902 -565.9921875 605.05859375 C-565.99929429 603.6483049 -566.00647284 602.23801642 -566.01371765 600.82772827 C-566.03335576 596.34868774 -566.03866748 591.86970484 -566.0390625 587.390625 C-566.03920979 586.62629528 -566.03935707 585.86196556 -566.03950882 585.07447433 C-566.03172202 541.46991972 -566.03172202 541.46991972 -563.08984375 520.37432861 C-562.75651161 517.96815485 -562.43868911 515.56015534 -562.12109375 513.15185547 C-557.35157259 477.42582274 -550.03244982 442.17058701 -538.68310547 407.92333984 C-537.83534772 405.34395239 -537.02724366 402.7556722 -536.23046875 400.16015625 C-528.16863494 374.34854629 -516.95227279 349.3090874 -504.7890625 325.203125 C-504.2321875 324.09356445 -503.6753125 322.98400391 -503.1015625 321.84082031 C-483.5373493 283.00716722 -459.62833548 246.61920411 -431.7890625 213.203125 C-431.3137207 212.62868652 -430.83837891 212.05424805 -430.34863281 211.46240234 C-424.31700995 204.1792916 -418.05917365 197.14939275 -411.60546875 190.23828125 C-409.22273457 187.683933 -406.90662999 185.07797064 -404.6015625 182.453125 C-400.29788158 177.65286551 -395.77600072 173.08123595 -391.2265625 168.515625 C-390.51798096 167.80245117 -389.80939941 167.08927734 -389.0793457 166.35449219 C-385.05743121 162.34423001 -380.93709091 158.51271307 -376.63549805 154.80444336 C-374.02383692 152.53948431 -371.50619733 150.18440024 -368.9765625 147.828125 C-364.38481569 143.59126083 -359.67952136 139.54906617 -354.80859375 135.6328125 C-352.5823909 133.84148239 -350.37418134 132.03574197 -348.17578125 130.2109375 C-301.67677475 91.74171538 -247.85770857 61.24125121 -191.7890625 39.203125 C-190.73734863 38.78691895 -189.68563477 38.37071289 -188.60205078 37.94189453 C-164.01562935 28.26822672 -138.85767387 21.21303988 -113.21044922 15.03125 C-110.41083542 14.3536212 -107.61638831 13.66057819 -104.82421875 12.953125 C-86.19214364 8.2841924 -67.13198158 5.90679193 -48.1015625 3.515625 C-47.24134491 3.40703156 -46.38112732 3.29843811 -45.49484253 3.18655396 C-42.98533739 2.8715146 -40.47525041 2.56167222 -37.96484375 2.25390625 C-37.23312958 2.16240295 -36.50141541 2.07089966 -35.74752808 1.97662354 C-23.84015736 0.53974719 -11.98568165 0.03176761 0 0 Z " fill="#FEFEFE" transform="translate(1046.7890625,480.796875)"/>
<path d="M0 0 C1.70275825 -0.00186982 3.40551607 -0.00417121 5.10827321 -0.00686532 C9.7736266 -0.01296846 14.43896203 -0.01285148 19.1043185 -0.01167095 C24.14124951 -0.01146657 29.17817481 -0.01698923 34.21510315 -0.02172852 C44.0779033 -0.03002727 53.94069746 -0.032783 63.80350081 -0.03334089 C71.82139589 -0.03381638 79.839289 -0.03587277 87.85718346 -0.03904152 C110.59762239 -0.04784565 133.33805661 -0.05246122 156.07849727 -0.05171105 C157.30388513 -0.05167109 158.52927299 -0.05163113 159.79179382 -0.05158997 C161.01868049 -0.05154909 162.24556715 -0.0515082 163.50963219 -0.05146609 C183.39523001 -0.05105959 203.2808089 -0.06063064 223.16640124 -0.07472833 C243.59284962 -0.08909503 264.01928876 -0.09599837 284.44574231 -0.09513456 C295.91043376 -0.09480271 307.37510536 -0.09754451 318.83979225 -0.10831261 C328.60023956 -0.11742141 338.36065801 -0.11958968 348.12110773 -0.11280318 C353.09875708 -0.10954004 358.07635107 -0.10947394 363.05399513 -0.11815643 C367.6155903 -0.12603125 372.1770863 -0.12457996 376.73867907 -0.1158723 C378.38396978 -0.11433949 380.02926792 -0.11614517 381.67454986 -0.12173238 C409.59550784 -0.21022741 431.70622989 9.20857469 451.81938171 28.53605652 C464.97365084 42.26125746 474.53989937 61.65720014 475.75688171 80.69621277 C476.10650357 85.5839263 477.36675929 89.59103799 479.17617798 94.12609863 C480.28574445 97.04521768 481.22302576 99.96363866 482.11845398 102.95475769 C484.53090757 110.88504313 487.12220509 118.75161231 489.72172546 126.62199402 C490.24187547 128.19986066 490.76190223 129.77776793 491.28181458 131.35571289 C492.37616134 134.67668777 493.4711461 137.9974514 494.56648254 141.31809998 C496.26736379 146.47606776 497.96356872 151.63556641 499.65898132 156.79533386 C506.20952471 176.74721903 506.20952471 176.74721903 512.8465271 196.67044067 C514.09378619 200.38547363 515.33138855 204.10367572 516.56721497 207.82252502 C517.10301826 209.42479666 517.64411391 211.02530994 518.19093323 212.62385559 C520.88383048 220.49717217 523.21711484 227.70689012 522.31938171 236.13371277 C523.83725281 236.08730652 523.83725281 236.08730652 525.38578796 236.03996277 C542.14279524 236.43933534 559.54248009 245.62577791 571.31938171 257.13371277 C583.41277 269.94468431 588.79050076 284.68603586 588.72343445 302.07218933 C588.73372932 303.9572242 588.73372932 303.9572242 588.74423218 305.88034058 C588.76204512 309.30007615 588.76101723 312.71955346 588.75528979 316.13932133 C588.75217902 319.009076 588.75831158 321.87878239 588.76432854 324.74853015 C588.77833475 331.52849588 588.77684665 338.30833551 588.76542664 345.08830261 C588.7539637 352.04683451 588.76799902 359.00498016 588.79482311 365.96346116 C588.81709358 371.96895477 588.82359172 377.97432816 588.8177467 383.97986007 C588.8144011 387.55282709 588.81662946 391.12554701 588.83399773 394.6984787 C588.85256489 398.69178078 588.83816421 402.68434916 588.8210907 406.67765808 C588.83075867 407.83656052 588.84042664 408.99546295 588.85038757 410.18948364 C588.70610108 426.43209378 582.88573528 442.16538007 571.60844421 454.00871277 C564.8288129 460.30243194 554.21732389 470.13371277 544.31938171 470.13371277 C544.32826416 471.26773529 544.33714661 472.40175781 544.34629822 473.57014465 C544.42773064 484.3085127 544.48751252 495.0468173 544.5266304 505.78542519 C544.54741806 511.30497328 544.57557297 516.82427015 544.62113953 522.34367371 C544.66491384 527.67997549 544.68858499 533.01603712 544.69889069 538.35250473 C544.70622575 540.37846527 544.72054779 542.40441413 544.74230194 544.43027115 C544.95317046 564.89974639 541.47917145 582.51147423 526.76078796 597.85246277 C511.91605612 611.7233802 494.61424462 616.62588517 474.63969421 616.53215027 C473.25548653 616.53417924 471.8712799 616.53709745 470.48707581 616.54084778 C467.60441275 616.54523553 464.72203119 616.5389583 461.83940125 616.52482605 C458.18642708 616.50776841 454.5341162 616.51757593 450.88116646 616.53554344 C448.02741208 616.54650623 445.17380881 616.54287803 442.32004929 616.53516006 C440.33187672 616.53224865 438.34369772 616.54119325 436.35554504 616.55055237 C417.82864193 616.40943766 400.76278536 611.4408657 387.31938171 598.13371277 C357.30526949 563.79064205 370.31938171 520.98653751 370.31938171 475.13371277 C253.16938171 475.13371277 136.01938171 475.13371277 15.31938171 475.13371277 C15.31938171 503.18371277 15.31938171 531.23371277 15.31938171 560.13371277 C8.94562683 580.5297284 1.25219086 594.73065995 -17.88764954 604.82511902 C-29.44263826 610.40756409 -39.67046995 611.46574558 -52.30952454 611.50480652 C-53.82774938 611.51379808 -55.34597346 611.52292027 -56.86419678 611.53216553 C-60.03878412 611.54858466 -63.21326696 611.55634195 -66.38789368 611.55924988 C-70.40977132 611.56460955 -74.43063314 611.60221877 -78.45222569 611.64799404 C-81.5882809 611.67808934 -84.72410174 611.68498045 -87.86028862 611.68597603 C-89.34034283 611.69011863 -90.8204018 611.70230536 -92.30031013 611.72349358 C-110.99005363 611.96968066 -126.600441 606.43747746 -140.36811829 593.46574402 C-154.99584369 578.71447364 -158.94960417 561.97576924 -158.9072113 541.77539062 C-158.89700214 539.93259054 -158.88657022 538.08979167 -158.87593079 536.24699402 C-158.87219412 534.3345759 -158.86935024 532.42215584 -158.86735535 530.50973511 C-158.85977029 525.51045821 -158.84016663 520.51130012 -158.81794739 515.5120697 C-158.79737768 510.39703477 -158.78832998 505.28198039 -158.77827454 500.16691589 C-158.75691526 490.15579639 -158.72284225 480.14476451 -158.68061829 470.13371277 C-159.60532173 469.83327309 -159.60532173 469.83327309 -160.54870605 469.52676392 C-161.76291985 469.12808861 -161.76291985 469.12808861 -163.00166321 468.72135925 C-164.20480415 468.32810707 -164.20480415 468.32810707 -165.43225098 467.9269104 C-179.45982941 462.97814516 -190.47497606 450.26717737 -197.12593079 437.39933777 C-202.11903465 426.91131056 -202.83079454 417.33451468 -202.87348938 405.84294128 C-202.88166687 404.61916275 -202.88984436 403.39538422 -202.89826965 402.13452148 C-202.92303222 398.09389054 -202.93978566 394.05329682 -202.95405579 390.01261902 C-202.95942284 388.61284316 -202.96480036 387.21306733 -202.97018814 385.81329155 C-202.99179743 379.98233845 -203.01052672 374.15138793 -203.02181053 368.32040501 C-203.03800437 360.0114641 -203.07109259 351.70299399 -203.12821138 343.39423043 C-203.1671504 337.52637216 -203.18647152 331.65863851 -203.1917311 325.7906546 C-203.19535329 322.29905946 -203.2070332 318.80796818 -203.23983383 315.31651497 C-203.41510682 295.69176643 -202.92607444 279.38095198 -190.68061829 263.13371277 C-190.1817511 262.44148621 -189.68288391 261.74925964 -189.16889954 261.03605652 C-180.09383522 249.53792717 -163.98191685 239.94289641 -149.68061829 237.13371277 C-145.3518589 236.69930362 -141.02379341 236.3818942 -136.68061829 236.13371277 C-136.76311829 234.93746277 -136.84561829 233.74121277 -136.93061829 232.50871277 C-136.90266419 226.46131076 -135.15727432 221.11751126 -133.37397766 215.38078308 C-131.99610126 210.91529913 -130.68357376 206.43040579 -129.36811829 201.94621277 C-129.06978088 200.93083435 -128.77144348 199.91545593 -128.46406555 198.86930847 C-125.85109263 189.89202368 -123.48965141 180.85804474 -121.17012024 171.80119324 C-118.97663862 163.23911955 -116.66681891 154.71784752 -114.26460266 146.21232605 C-113.67210599 144.10341439 -113.08899073 141.99211925 -112.50874329 139.87980652 C-110.12479868 131.21109418 -107.64863024 122.57332439 -105.11811829 113.94621277 C-104.23428813 110.91695618 -103.35225387 107.88719047 -102.47212219 104.8568573 C-101.98174011 103.16971303 -101.48957682 101.48308402 -100.99458313 99.79728699 C-99.18569896 93.60340324 -97.58265338 87.71858567 -97.24311829 81.25871277 C-95.85462704 58.7410069 -83.28490256 38.0169522 -67.30561829 22.75871277 C-47.55379496 5.68889091 -25.5377183 -0.02659503 0 0 Z " fill="#3664DA" transform="translate(875.6806182861328,760.8662872314453)"/>
<path d="M0 0 C0.6823336 -0.00235223 1.36466721 -0.00470446 2.06767759 -0.00712797 C4.36481517 -0.01380978 6.66189607 -0.01336 8.95904255 -0.01294994 C10.61837596 -0.01624907 12.27770857 -0.01997474 13.93704015 -0.02409142 C18.50546269 -0.03411385 23.07387209 -0.0378286 27.64230406 -0.04048073 C32.56611129 -0.04438302 37.4899081 -0.05396136 42.41370869 -0.0626936 C54.30836659 -0.08245929 66.20302534 -0.09252398 78.09769556 -0.10142139 C83.69765066 -0.10580378 89.29760481 -0.11117069 94.89755917 -0.11641026 C113.51016735 -0.13342201 132.12277494 -0.14791683 150.73538971 -0.155159 C155.56582547 -0.15706892 160.39626123 -0.15898925 165.22669697 -0.16094494 C166.42729192 -0.16142868 167.62788687 -0.16191242 168.86486349 -0.16241082 C188.3195699 -0.17071352 207.77421487 -0.19605475 227.22889443 -0.22852562 C247.1975149 -0.2615829 267.16610412 -0.27960652 287.13475209 -0.28280324 C298.34850074 -0.28496948 309.56215977 -0.29373491 320.77588177 -0.31926441 C330.32465583 -0.34095314 339.8733185 -0.34903078 349.42211439 -0.33929763 C354.29411032 -0.33474776 359.16587633 -0.33667917 364.03784084 -0.35605907 C368.49965324 -0.37365423 372.96106737 -0.3727227 377.42288379 -0.35716178 C379.03530075 -0.35478018 380.64774502 -0.35913791 382.26012018 -0.37099043 C394.14063433 -0.45290048 402.57962899 0.94267732 411.45008564 9.21234608 C417.45047307 15.65817712 420.11637355 22.45792728 420.42274189 31.24750233 C421.12014058 39.95773508 424.17970321 47.88511489 427.05164814 56.07172108 C427.86273226 58.42418138 428.66985124 60.77796721 429.47588825 63.13216114 C429.97409844 64.58289568 430.47576501 66.03245121 430.98202229 67.48039722 C432.43394219 71.65751993 433.7778226 75.85665409 435.0658083 80.08734608 C437.3303482 87.50227199 439.75857961 94.85884859 442.20027065 102.21681881 C443.01384416 104.66955366 443.82516733 107.12302271 444.6358614 109.5767107 C446.93767099 116.54304405 449.24133372 123.50875691 451.551404 130.47235584 C452.97326423 134.75902283 454.39082288 139.04709249 455.80572033 143.33606243 C456.34031708 144.95387857 456.87647554 146.57117964 457.41432095 148.18791866 C458.1693044 150.45784668 458.91875876 152.72953642 459.66712666 155.00165272 C459.88382511 155.64874195 460.10052357 156.29583118 460.32378864 156.96252918 C462.2950859 162.9812023 463.6886247 168.93212733 465.23914814 175.13422108 C288.68914814 175.13422108 112.13914814 175.13422108 -69.76085186 175.13422108 C-67.96930049 166.77364801 -66.18578913 158.58919556 -63.88585186 150.38422108 C-63.62538067 149.44304432 -63.36490948 148.50186756 -63.09654522 147.5321703 C-62.56853904 145.62593755 -62.03887178 143.72016401 -61.50743389 141.81488514 C-60.83472155 139.39945625 -60.16897926 136.98228169 -59.50694561 134.56390858 C-57.44941665 127.06892629 -55.31718038 119.59972991 -53.12144756 112.1439867 C-50.46566617 103.12514694 -47.93580255 94.11391157 -45.71788311 84.97797108 C-44.08779051 78.43098693 -42.23898319 71.94549545 -40.4107542 65.45160389 C-39.74687162 63.08437116 -39.09057493 60.71515555 -38.43663311 58.34515858 C-38.22031231 57.56213367 -38.00399151 56.77910877 -37.78111553 55.97235584 C-37.35443432 54.42626201 -36.92879807 52.87987938 -36.50426006 51.33319569 C-35.43399086 47.45823062 -34.28055835 43.63700416 -33.01085186 39.82172108 C-31.83085494 36.05480782 -31.55973989 32.57415769 -31.38585186 28.63422108 C-30.83171873 19.57627564 -27.30510174 12.7554262 -20.65928936 6.60297108 C-14.2199604 1.6211034 -8.04137681 0.01181009 0 0 Z " fill="#FEFEFE" transform="translate(870.7608518600464,821.8657789230347)"/>
<path d="M0 0 C1.66700203 1.30677059 3.31546318 2.63781731 4.9375 4 C5.56785156 4.51820312 6.19820312 5.03640625 6.84765625 5.5703125 C17.49478789 15.22306511 26.15786304 31.30006885 27.11450195 45.65625 C27.65174064 70.5875495 27.65174064 70.5875495 22.9375 81 C22.51339844 82.00675781 22.08929687 83.01351563 21.65234375 84.05078125 C14.63025996 99.44459725 1.88024162 112.65578719 -14.08544922 118.77539062 C-33.43339385 125.5012526 -52.16179092 126.38735335 -70.90966797 117.41674805 C-86.80520557 109.23648101 -98.75223416 95.7525207 -105.0625 79 C-105.45566406 77.97648437 -105.84882812 76.95296875 -106.25390625 75.8984375 C-112.31597893 57.86007489 -109.52129016 40.50534848 -101.6875 23.5625 C-94.99993569 11.1248804 -85.17287205 2.00466786 -73.0625 -5 C-72.41796875 -5.39058594 -71.7734375 -5.78117187 -71.109375 -6.18359375 C-48.71500877 -18.6952288 -20.31751967 -14.34506196 0 0 Z " fill="#FEFEFE" transform="translate(845.0625,1061)"/>
<path d="M0 0 C15.08837135 11.23216667 25.32594897 25.75278697 29.328125 44.28515625 C30.72639178 55.71139691 30.54911702 67.53000231 26.71484375 78.4453125 C26.37453125 79.43789062 26.03421875 80.43046875 25.68359375 81.453125 C18.57894809 100.22283077 4.60973011 112.37655287 -13.05078125 120.7578125 C-28.881391 127.52813617 -46.22411151 127.28883578 -62.28515625 121.4453125 C-80.92593326 113.76618771 -93.83536411 101.15738693 -102.03125 82.90625 C-105.19347354 74.17811898 -106.79706011 66.30710481 -106.66015625 57.0078125 C-106.64927979 55.9979126 -106.63840332 54.9880127 -106.62719727 53.94750977 C-106.23296423 35.51079289 -98.93719953 20.59279965 -86.26953125 7.3359375 C-62.82820144 -15.06355542 -26.79815658 -18.23190824 0 0 Z " fill="#FEFEFE" transform="translate(1371.28515625,1059.5546875)"/>
</svg>
