<?xml version="1.0" encoding="UTF-8" standalone="no"?><!DOCTYPE svg PUBLIC "-//W3C//DTD SVG 1.1//EN" "http://www.w3.org/Graphics/SVG/1.1/DTD/svg11.dtd"><svg xmlns="http://www.w3.org/2000/svg" xmlns:xlink="http://www.w3.org/1999/xlink" version="1.1" width="512" height="512" viewBox="0 0 512 512" xml:space="preserve">
<desc>Created with Fabric.js 6.5.1</desc>
<defs>
</defs>

<g transform="matrix(9.6895 0 0 9.6895 256 256)">
<g style="">
		<g transform="matrix(0.7285 0 0 0.7285 0 0)">
<g style="">
		<g transform="matrix(1 0 0 1 -0.0075 -6.7755)">
<path style="stroke: none; stroke-width: 1; stroke-dasharray: none; stroke-linecap: butt; stroke-dashoffset: 0; stroke-linejoin: miter; stroke-miterlimit: 4; fill: rgb(13,143,80); fill-rule: nonzero; opacity: 1;" transform=" translate(-49.9925, -43.2245)" d="M 59.438 41.013 L 59.438 40.806 C 59.438 40.089 58.854 39.505 58.137 39.505 L 41.563 39.505 C 40.845 39.505 40.261 40.088 40.261 40.806 L 40.261 40.982 L 38.615 46.944 L 61.37 46.944 L 59.438 41.013 Z" stroke-linecap="round"/>
</g>
		<g transform="matrix(1 0 0 1 -11.234 2.035)">
<circle style="stroke: none; stroke-width: 1; stroke-dasharray: none; stroke-linecap: butt; stroke-dashoffset: 0; stroke-linejoin: miter; stroke-miterlimit: 4; fill: rgb(13,143,80); fill-rule: nonzero; opacity: 1;" cx="0" cy="0" r="2.903"/>
</g>
		<g transform="matrix(1 0 0 1 11.234 2.035)">
<circle style="stroke: none; stroke-width: 1; stroke-dasharray: none; stroke-linecap: butt; stroke-dashoffset: 0; stroke-linejoin: miter; stroke-miterlimit: 4; fill: rgb(13,143,80); fill-rule: nonzero; opacity: 1;" cx="0" cy="0" r="2.903"/>
</g>
		<g transform="matrix(1 0 0 1 0 0)">
<path style="stroke: none; stroke-width: 1; stroke-dasharray: none; stroke-linecap: butt; stroke-dashoffset: 0; stroke-linejoin: miter; stroke-miterlimit: 4; fill: rgb(13,143,80); fill-rule: nonzero; opacity: 1;" transform=" translate(-50, -50)" d="M 50 25 C 36.193 25 25 36.193 25 50 C 25 63.807 36.193 75 50 75 C 63.808 75 75 63.807 75 50 C 75 36.193 63.808 25 50 25 Z M 66.811 54.458 C 66.811 55.574 66.037 56.53 64.937 56.928 L 64.937 60.494 C 64.937 61.931 63.772 63.096 62.334 63.096 L 60.134 63.096 C 58.696 63.096 57.531 61.931 57.531 60.494 L 57.531 57.126 L 42.469 57.126 L 42.469 60.294 C 42.469 61.731 41.304 62.896 39.866 62.896 L 37.666 62.896 C 36.229 62.896 35.064 61.731 35.064 60.294 L 35.064 56.928 C 33.964 56.531 33.189 55.574 33.189 54.458 L 33.189 49.612 C 33.189 48.201 34.426 47.047 35.993 46.951 C 35.992 46.917 35.991 46.884 35.991 46.85 L 35.991 46.674 L 37.664 40.613 C 37.766 38.55 39.475 36.903 41.563 36.903 L 58.138 36.903 C 60.214 36.903 61.916 38.533 62.034 40.58 L 64.009 46.643 L 64.009 46.85 C 64.009 46.884 64.008 46.917 64.007 46.951 C 65.573 47.047 66.811 48.201 66.811 49.612 L 66.811 54.458 Z" stroke-linecap="round"/>
</g>
</g>
</g>
</g>
</g>
</svg>